<svg version="1.1" xmlns="http://www.w3.org/2000/svg" xmlns:xlink="http://www.w3.org/1999/xlink" x="0" y="0" viewBox="0 0 512 512"><style>.st0{fill:#fff}.st3{fill:#2b4c9b}.st4{fill:#1d1d1b}</style><path class="st0" d="M503.9 395.3V73.5h-48.2V.3H256.4v73.1H125.9V60.6H81.8v12.8H9.1C7.5 71.8 8.9 397 8.9 397h207.5v73.6H139v34.9h231.6v-32.4h-66l-10.2-3.8 2.5-74h207z"/><defs><rect id="yy" x="9.1" y="73.5" width="493.4" height="321.9"/></defs><clipPath id="zz"><use xlink:href="#yy" overflow="visible"/></clipPath><path d="M391.5 640c246.9 0 447.1-100.8 447.1-225.1S638.5 189.7 391.5 189.7-55.6 310.5-55.6 434.8 144.6 640 391.5 640" clip-path="url(#zz)" fill="#c9cbe8"/><defs><rect id="xx" x="5.4" y="43.5" width="500.8" height="485.8"/></defs><clipPath id="ww"><use xlink:href="#xx" overflow="visible"/></clipPath><path d="M506.2 399.1H5.4V69.7h500.8v329.4zm-493.3-7.5h485.9V77.2H12.9v314.4z" clip-path="url(#ww)" fill="#1d1d1b"/><rect x="43.9" y="109.2" class="st3" width="423.9" height="254.5"/><polygon class="st0" points="257.9 69.5 257.9 152.9 344.2 152.9 414.7 203.4 414.7 156 454.7 156 454.7 69.5"/><path class="st4" d="M298.2 476.1h-84.7v-84.4h84.7v84.4zm-77.3-7.4h69.8v-69.6h-69.8v69.6z"/><defs><rect id="vv" x="5.4" y="43.5" width="500.8" height="485.8"/></defs><clipPath id="uu"><use xlink:href="#vv" overflow="visible"/></clipPath><path d="M375 509.3H136.6v-40.5H375v40.5zm-231-7.5h223.6v-25.7H144v25.7z" clip-path="url(#uu)" fill="#1d1d1b"/><rect x="247.4" y="221.8" class="st0" width="128.8" height="19.4"/><rect x="87" y="223.5" class="st0" width="128.8" height="19.4"/><rect x="87" y="185" class="st0" width="128.8" height="19.4"/><rect x="87" y="262.1" class="st0" width="128.8" height="19.4"/><rect x="87" y="300.7" class="st0" width="128.8" height="19.4"/><rect x="313.2" y="261.2" class="st0" width="128.8" height="19.4"/><rect x="247.4" y="303.3" class="st0" width="128.8" height="19.4"/><polygon points="269.5 1.1 269.5 142.3 347.9 142.3 403.6 182.3 404.4 142.3 443.6 142.3 443.6 1.1" fill="#b7badf"/><defs><rect id="tt" x="5.4" y="43.5" width="500.8" height="485.8"/></defs><clipPath id="ss"><use xlink:href="#tt" overflow="visible"/></clipPath><polygon class="st4" points="215.8 397 217.9 409.6 293.7 431.1 293.7 395.9"/><polygon class="st0" points="83.3 62.8 83.3 155 103.3 139.2 124.3 155 124.3 62.4 83.3 62.4"/><polygon points="83.3 62.4 83.3 62.8 83.3 155 103.3 139.2 103.3 62.4" fill="#dedff1"/><path class="st4" d="M79.6 162.6v-104H128v103.7l-24.7-18.5-23.7 18.8zm23.6-28.1 17.4 13V66.1H87v81.2l16.2-12.8z"/><rect x="355.8" y="50.8" class="st3" width="9" height="72.6"/><rect x="339.6" y="50.3" class="st3" width="25.3" height="9"/><rect x="356" y="114.5" class="st3" width="25.4" height="9"/><path class="st3" d="M359.3 39.5c4.1 0 7.3-3.3 7.3-7.3s-3.3-7.3-7.3-7.3c-4.1 0-7.3 3.3-7.3 7.3s3.3 7.3 7.3 7.3"/></svg>